<svg id="Layer_1" data-name="Layer 1" xmlns="http://www.w3.org/2000/svg" viewBox="0 0 192.84 72.59"><defs><style>.cls-1{fill:none;stroke:#231f20;stroke-miterlimit:10;stroke-width:0.61px;}.cls-2{fill:#ffd455;}.cls-3{fill:#6268b0;}.cls-4{fill:#72cbc9;}.cls-5{fill:#fff;}.cls-6{font-size:23.78px;font-family:WorkSans-Bold, Work Sans;font-weight:700;}.cls-6,.cls-9{fill:#231f20;}.cls-7{letter-spacing:-0.01em;}.cls-8{letter-spacing:0em;}.cls-9{font-size:19.02px;font-family:WorkSans-Medium, Work Sans;font-weight:500;letter-spacing:0.07em;}</style></defs><polygon class="cls-1" points="55.62 32.24 37.13 17.42 26.61 25.56 26.52 22.96 27.61 22.96 27.61 20.51 19.7 20.51 19.7 23.15 20.61 23.15 20.61 30.6 16.26 34.25 17.93 35.59 19.53 34.17 19.53 54.33 55.48 54.33 55.48 34.55 56.83 35.59 58.25 34.4 55.62 32.24"/><path class="cls-2" d="M51,49.27l-.28,4.54L49,54.12l.54-.6V49.61a1.75,1.75,0,0,1-1.78.61l-.29,3.55L46,54.12l.73-1.06-.55-3.58a11.71,11.71,0,0,0-3.18-1l3.44-4,.29-4.14-1.27-.71V39c-.79-.24-1.2-1.6-1.2-1.6l-.37-1.17.41-.13c.13.25,1.33,1.53,1.33,1.53v-.77a.54.54,0,0,1,.75-.28s0-1,.45-1l.38-.3a2.1,2.1,0,0,1,.28-1,2.15,2.15,0,0,1,.91-.65,1.84,1.84,0,0,1,1.52.12c.82.39,1.18,2,1.18,2a.84.84,0,0,1,.27.09l-.38.76a1,1,0,0,1-.6.23,9.72,9.72,0,0,1-.77.62l-.06.76s2.83,1,3.18,2.73l-.06.42a15.49,15.49,0,0,1,.69,3s.34.09.42.75-.15.23-.19.15c0,.09.1.57,0,.59s-.22-.59-.22-.59.12,1,0,.76a7.42,7.42,0,0,1-.26-.84s0,1-.11.57a3,3,0,0,0-.19-.56l-.38,0a3.53,3.53,0,0,0,.38-1c.09-.51-1.17-2.16-1.17-2.16l-.45-.35.29,3,2.66,3.87a1.39,1.39,0,0,1-1.08.86C52.46,50,51,49.27,51,49.27Z"/><path class="cls-2" d="M52.12,36.83s1,.1.9.83c0,0,.13.58-.66.78a.85.85,0,0,1-.76.43c-.55,0-.9-.77-.9-.77s.06-.72.42-.65-.18-.92-.18-.92l.38-.76A1.54,1.54,0,0,1,52.12,36.83Z"/><path class="cls-2" d="M44.51,35c.09.13-.16.63-.16.63a.55.55,0,0,0-.1.52l-.41.13c-.13-.43-.28-.88-.37-1.13a4.79,4.79,0,0,0-.72-1.21s-.68,1.47-.43.43a4.17,4.17,0,0,0,.07-1.75,5.85,5.85,0,0,1-.9-1.48v4.4l-.67.35L40.65,52l-.83,0,0,.2c1.39.74,1.36.66,1.34.63,1.53.47,1.13.94,1.13.94a27.41,27.41,0,0,1-3.52,0c-.36-.16-.27-1.83-.27-1.83l-.44,0L37,36.1,34.53,51.47h-.76a6.23,6.23,0,0,1-.29,2.27H29.66a.13.13,0,0,1,0-.09c0-.15.19-.47,1.47-.94a4.32,4.32,0,0,0,1.3-.7c.27-.34.11-.45.11-.45H32l.85-15.91-.14-4.34a2.4,2.4,0,0,1-1.39,1.34l.19,1.14.17.51s0,.34-.23.15a1.06,1.06,0,0,1-.27-.53,1.69,1.69,0,0,0-.31.73l.22.15v.29l-.76.93-.4-.34,0-1,.67-2.51s-.29.08-.35-.59a32.54,32.54,0,0,1,1.82-9,1.08,1.08,0,0,1-.61-1.08c.14-.72,1.08-1.23,1.13-2.05S32,18,31.82,17.26s2.11-1.71,2.11-1.71,0-3.46,1.93-3.5a6.8,6.8,0,0,1,3.23.67s.89.49,1,2.9,0,2.83.86,3.52.57,2.21.57,2.21L43.72,29s.64,3.11-.25,3.35l1,1.9h-.28l0,1S44.43,34.86,44.51,35Z"/><path class="cls-2" d="M30.31,36l-.31.37.2.3L27.28,40a24.08,24.08,0,0,1,.3,4.24c0,2.37.2,6.72.2,6.72h-.72l0,1.45,1,1.38H25.73V50.92h-.56l-.07-4.73-.19,4.72h-.67v1.42l1.23,1.41H23V50.91l-.79,0,.44-6.64.15-3.14-1.23,2.31h-.31s-.17,0-.12.3.29.84.29.84l0,.17-.28-.25-.15.54-.17-.5-.09.72-.14-.64-.23.27.11-.7.27-.85-.38-.31.95-2.54s1.43-3.06,3.12-2.81l.08-.71,1,.11v.55l1.62-.37L29.44,36l.47-.34Z"/><path class="cls-2" d="M27.2,33.62l-.37.86v.38s.28.09.28.27-.28.33-.28.33a2.1,2.1,0,0,1,0,.73c-.09.44-1.27.91-1.27.91l-1-.11s-.55-.38-.66-.66l-.27,0A2.17,2.17,0,0,1,22.85,35c-.07-.82.06-1.38.37-1.57l.31-.2s-.18-.51.77-.89l-.17.58,1.7-.58-.31.53,1.17,0-.08.55Z"/><path class="cls-2" d="M51,49.27l-.28,4.54L49,54.12l.54-.6V49.61a1.75,1.75,0,0,1-1.78.61l-.29,3.55L46,54.12l.73-1.06-.55-3.58a11.71,11.71,0,0,0-3.18-1l3.44-4,.29-4.14-1.27-.71V39c-.79-.24-1.2-1.6-1.2-1.6l-.37-1.17.41-.13c.13.25,1.33,1.53,1.33,1.53v-.77a.54.54,0,0,1,.75-.28s0-1,.45-1l.38-.3a2.1,2.1,0,0,1,.28-1,2.15,2.15,0,0,1,.91-.65,1.84,1.84,0,0,1,1.52.12c.82.39,1.18,2,1.18,2a.84.84,0,0,1,.27.09l-.38.76a1,1,0,0,1-.6.23,9.72,9.72,0,0,1-.77.62l-.06.76s2.83,1,3.18,2.73l-.06.42a15.49,15.49,0,0,1,.69,3s.34.09.42.75-.15.23-.19.15c0,.09.1.57,0,.59s-.22-.59-.22-.59.12,1,0,.76a7.42,7.42,0,0,1-.26-.84s0,1-.11.57a3,3,0,0,0-.19-.56l-.38,0a3.53,3.53,0,0,0,.38-1c.09-.51-1.17-2.16-1.17-2.16l-.45-.35.29,3,2.66,3.87a1.39,1.39,0,0,1-1.08.86C52.46,50,51,49.27,51,49.27Z"/><path class="cls-2" d="M52.12,36.83s1,.1.9.83c0,0,.13.58-.66.78a.85.85,0,0,1-.76.43c-.55,0-.9-.77-.9-.77s.06-.72.42-.65-.18-.92-.18-.92l.38-.76A1.54,1.54,0,0,1,52.12,36.83Z"/><path class="cls-3" d="M44.51,35c.09.13-.16.63-.16.63a.55.55,0,0,0-.1.52l-.41.13c-.13-.43-.28-.88-.37-1.13a4.79,4.79,0,0,0-.72-1.21s-.68,1.47-.43.43a4.17,4.17,0,0,0,.07-1.75,5.85,5.85,0,0,1-.9-1.48v4.4l-.67.35L40.65,52l-.83,0,0,.2c1.39.74,1.36.66,1.34.63,1.53.47,1.13.94,1.13.94a27.41,27.41,0,0,1-3.52,0c-.36-.16-.27-1.83-.27-1.83l-.44,0L37,36.1,34.53,51.47h-.76a6.23,6.23,0,0,1-.29,2.27H29.66a.13.13,0,0,1,0-.09c0-.15.19-.47,1.47-.94a4.32,4.32,0,0,0,1.3-.7c.27-.34.11-.45.11-.45H32l.85-15.91-.14-4.34a2.4,2.4,0,0,1-1.39,1.34l.19,1.14.17.51s0,.34-.23.15a1.06,1.06,0,0,1-.27-.53,1.69,1.69,0,0,0-.31.73l.22.15v.29l-.76.93-.4-.34,0-1,.67-2.51s-.29.08-.35-.59a32.54,32.54,0,0,1,1.82-9,1.08,1.08,0,0,1-.61-1.08c.14-.72,1.08-1.23,1.13-2.05S32,18,31.82,17.26s2.11-1.71,2.11-1.71,0-3.46,1.93-3.5a6.8,6.8,0,0,1,3.23.67s.89.49,1,2.9,0,2.83.86,3.52.57,2.21.57,2.21L43.72,29s.64,3.11-.25,3.35l1,1.9h-.28l0,1S44.43,34.86,44.51,35Z"/><path class="cls-4" d="M30.31,36l-.31.37.2.3L27.28,40a24.08,24.08,0,0,1,.3,4.24c0,2.37.2,6.72.2,6.72h-.72l0,1.45,1,1.38H25.73V50.92h-.56l-.07-4.73-.19,4.72h-.67v1.42l1.23,1.41H23V50.91l-.79,0,.44-6.64.15-3.14-1.23,2.31h-.31s-.17,0-.12.3.29.84.29.84l0,.17-.28-.25-.15.54-.17-.5-.09.72-.14-.64-.23.27.11-.7.27-.85-.38-.31.95-2.54s1.43-3.06,3.12-2.81l.08-.71,1,.11v.55l1.62-.37L29.44,36l.47-.34Z"/><path class="cls-4" d="M27.2,33.62l-.37.86v.38s.28.09.28.27-.28.33-.28.33a2.1,2.1,0,0,1,0,.73c-.09.44-1.27.91-1.27.91l-1-.11s-.55-.38-.66-.66l-.27,0A2.17,2.17,0,0,1,22.85,35c-.07-.82.06-1.38.37-1.57l.31-.2s-.18-.51.77-.89l-.17.58,1.7-.58-.31.53,1.17,0-.08.55Z"/><path class="cls-5" d="M46.83,38h1.53s.28-.28-.76-.71C47.6,37.29,46.8,37.64,46.83,38Z"/><text class="cls-6" transform="translate(67.01 34.41)">Childca<tspan class="cls-7" x="87.79" y="0">r</tspan><tspan class="cls-8" x="97.87" y="0">e</tspan></text><text class="cls-9" transform="translate(79.37 51.63)">Connect</text></svg>